<svg width="24" height="24" viewBox="0 0 24 24" fill="none" xmlns="http://www.w3.org/2000/svg">
<path d="M18.8789 11.6455C18.8789 11.373 18.7646 11.1094 18.5625 10.916L12.7881 5.1416C12.5596 4.92188 12.3223 4.8252 12.0762 4.8252C11.5137 4.8252 11.1094 5.2207 11.1094 5.75684C11.1094 6.03809 11.2236 6.27539 11.3994 6.45117L13.377 8.45508L15.9258 10.7842L13.8867 10.6611H3.23438C2.64551 10.6611 2.24121 11.0654 2.24121 11.6455C2.24121 12.2168 2.64551 12.6211 3.23438 12.6211H13.8867L15.9258 12.498L13.377 14.8271L11.3994 16.8311C11.2236 17.0068 11.1094 17.2441 11.1094 17.5254C11.1094 18.0615 11.5137 18.457 12.0762 18.457C12.3223 18.457 12.5596 18.3604 12.7705 18.1582L18.5625 12.3662C18.7646 12.1729 18.8789 11.9092 18.8789 11.6455Z" fill="#0078AB"/>
</svg>
