<svg width="26" height="26" viewBox="0 0 26 26" fill="none" xmlns="http://www.w3.org/2000/svg">
<path d="M13.9258 1.53125C13.9258 0.980469 13.457 0.511719 12.8945 0.511719C12.3438 0.511719 11.875 0.980469 11.875 1.53125V5.14062C11.875 5.70312 12.3438 6.17188 12.8945 6.17188C13.457 6.17188 13.9258 5.70312 13.9258 5.14062V1.53125ZM17.6992 6.75781C17.3008 7.14453 17.3008 7.80078 17.6992 8.19922C18.0859 8.58594 18.7539 8.58594 19.1523 8.19922L21.6953 5.64453C22.0938 5.24609 22.0938 4.58984 21.6953 4.19141C21.3086 3.80469 20.6523 3.80469 20.2656 4.19141L17.6992 6.75781ZM6.64844 8.19922C7.03516 8.58594 7.69141 8.58594 8.08984 8.19922C8.47656 7.80078 8.47656 7.14453 8.08984 6.75781L5.54688 4.20312C5.16016 3.81641 4.50391 3.80469 4.10547 4.19141C3.71875 4.57812 3.71875 5.23438 4.10547 5.63281L6.64844 8.19922ZM22.375 24.3828C22.8672 24.8867 23.7109 24.8867 24.1797 24.3828C24.6719 23.8672 24.6602 23.0703 24.1797 22.5781L13.0469 11.3984C12.5547 10.9062 11.6992 10.9062 11.2305 11.3984C10.75 11.9141 10.7617 12.7227 11.2305 13.2148L22.375 24.3828ZM1.43359 11.9727C0.882812 11.9727 0.414062 12.4414 0.414062 12.9922C0.414062 13.543 0.882812 14.0117 1.43359 14.0117H5.06641C5.61719 14.0117 6.08594 13.543 6.08594 12.9922C6.08594 12.4414 5.61719 11.9727 5.06641 11.9727H1.43359ZM24.3555 14.0117C24.918 14.0117 25.3867 13.543 25.3867 12.9922C25.3867 12.4414 24.918 11.9727 24.3555 11.9727H20.7461C20.1953 11.9727 19.7266 12.4414 19.7266 12.9922C19.7266 13.543 20.1953 14.0117 20.7461 14.0117H24.3555ZM15.5664 16.332L12.1211 12.8867C11.9102 12.6758 11.8516 12.4414 12.0508 12.2422C12.2266 12.0547 12.4844 12.1016 12.6953 12.3242L16.1406 15.7695L15.5664 16.332ZM4.09375 20.3398C3.70703 20.7266 3.70703 21.3945 4.08203 21.7812C4.46875 22.168 5.13672 22.1797 5.53516 21.793L8.08984 19.2383C8.47656 18.8516 8.47656 18.1953 8.08984 17.8086C7.71484 17.4102 7.03516 17.4102 6.64844 17.8086L4.09375 20.3398ZM13.9258 20.8555C13.9258 20.293 13.457 19.8242 12.8945 19.8242C12.3438 19.8242 11.875 20.293 11.875 20.8555V24.4648C11.875 25.0156 12.3438 25.4844 12.8945 25.4844C13.457 25.4844 13.9258 25.0156 13.9258 24.4648V20.8555Z" fill="#51B5DF"/>
</svg>
