<svg width="13" height="22" viewBox="0 0 13 22" fill="none" xmlns="http://www.w3.org/2000/svg">
<path d="M12.2334 11.1348C12.2334 10.8418 12.1162 10.5723 11.8936 10.3613L2.6123 1.26758C2.40137 1.06836 2.14355 0.962891 1.83887 0.962891C1.24121 0.962891 0.772461 1.41992 0.772461 2.0293C0.772461 2.32227 0.889648 2.5918 1.07715 2.79102L9.6084 11.1348L1.07715 19.4785C0.889648 19.6777 0.772461 19.9355 0.772461 20.2402C0.772461 20.8496 1.24121 21.3066 1.83887 21.3066C2.14355 21.3066 2.40137 21.2012 2.6123 20.9902L11.8936 11.9082C12.1162 11.6855 12.2334 11.4277 12.2334 11.1348Z" fill="white"/>
</svg>
